# xmcd CD database file
#
# Track frame offsets:
#	150
#	23415
#	42075
#	81900
#	106575
#	143625
#	178125
#	203250
#	231900
#
# Disc length: 3785 seconds
#
# Revision: 0
# Processed by: cddbd v1.5.2PL0 Copyright (c) Steve Scherf et al.
# Submitted via: CDex 1.70beta3
#
DISCID=610ec709
DTITLE=Orquesta Libre - Can't Help Falling in Love
DYEAR=2012
DGENRE=Jazz
TTITLE0=Por Una Cabeza
TTITLE1=Hush
TTITLE2=Purple Haze
TTITLE3=I Say a Little Prayer
TTITLE4=Close to You
TTITLE5=Hello Dolly
TTITLE6=Le Clan Des Siciliens
TTITLE7=Ponta De Areia
TTITLE8=Can’t Help Falling in Love
EXTD=YEAR: 2012
EXTT0=
EXTT1=
EXTT2=
EXTT3=
EXTT4=
EXTT5=
EXTT6=
EXTT7=
EXTT8=
PLAYORDER=
